<?xml version="1.0" encoding="UTF-8"?>
<svg width="254px" height="422px" viewBox="0 0 254 422" version="1.1" xmlns="http://www.w3.org/2000/svg" xmlns:xlink="http://www.w3.org/1999/xlink">
    <!-- Generator: Sketch 42 (36781) - http://www.bohemiancoding.com/sketch -->
    <title>SG logo</title>
    <desc>Created with Sketch.</desc>
    <defs></defs>
    <g id="Page-1" stroke="none" stroke-width="1" fill="none" fill-rule="evenodd">
        <g id="SG-logo">
            <path d="M231,98.0005179 L231,27.9989642 C231,23.5748784 227.420661,20 223.005323,20 L30.9946767,20 C26.5883168,20 23,23.5812582 23,27.9989642 L23,98.0005179 L23,118 L231,118 L231,98.0005179 Z M10,30.006351 C10,16.7480094 20.7536798,6 34.0098574,6 L221.990143,6 C235.250421,6 246,16.7431077 246,30.006351 L246,153.993649 C246,167.251991 235.24632,178 221.990143,178 L34.0098574,178 C20.7495793,178 10,167.256892 10,153.993649 L10,30.006351 Z M217.5,156 C223.851275,156 229,150.851275 229,144.5 C229,138.148725 223.851275,133 217.5,133 C211.148725,133 206,138.148725 206,144.5 C206,150.851275 211.148725,156 217.5,156 Z" id="Combined-Shape" fill="#FFFFFF"></path>
            <g id="head-window" transform="translate(23.000000, 20.000000)"></g>
            <g id="chevrons" transform="translate(100.000000, 41.000000)" fill="#FFFFFF">
                <path d="M0.388531516,7.23103753 C0.388531516,7.23103753 -0.723576819,4.28392067 2.21487267,1.41121634 C5.15332217,-1.46148799 8.01841612,0.940958721 8.01841612,0.940958721 L31.5556505,24.3962242 C31.5556505,24.3962242 33.677538,26.1309497 33.677538,28.2858272 C33.677538,30.4407048 31.5420242,32.208508 31.5420242,32.208508 L8.01841612,55.7735939 C8.01841612,55.7735939 4.49484027,58.0741157 1.70526103,54.8633506 C-1.08431821,51.6525855 0.388531516,48.5891739 0.388531516,48.5891739 L20.1962304,28.9895582 L20.9132072,28.2594077 L20.1996664,27.5737004 L0.388531516,7.23103753 Z" id="Rectangle-2"></path>
                <path d="M27.3885315,7.23103753 C27.3885315,7.23103753 26.2764232,4.28392067 29.2148727,1.41121634 C32.1533222,-1.46148799 35.0184161,0.940958721 35.0184161,0.940958721 L58.5556505,24.3962242 C58.5556505,24.3962242 60.677538,26.1309497 60.677538,28.2858272 C60.677538,30.4407048 58.5420242,32.208508 58.5420242,32.208508 L35.0184161,55.7735939 C35.0184161,55.7735939 31.4948403,58.0741157 28.705261,54.8633506 C25.9156818,51.6525855 27.3885315,48.5891739 27.3885315,48.5891739 L47.1962304,28.9895582 L47.9132072,28.2594077 L47.1996664,27.5737004 L27.3885315,7.23103753 Z" id="Rectangle-2-Copy"></path>
            </g>
            <g id="BOdy" transform="translate(72.000000, 185.000000)" fill="#FFFFFF">
                <path d="M55.4793791,2.84217094e-14 L86.0777558,2.84217094e-14 C86.0777558,2.84217094e-14 101.379422,5.57639291 105.576981,9.99447177 C109.77454,14.4125506 111,26.2315389 111,26.2315389 L111,105.029445 C111,105.029445 110.478804,114.117363 100.930538,114.117363 C91.3822715,114.117363 90.3277027,105.050617 90.3277027,105.050617 L90.3277027,36.8996593 L87.98623,36.8996593 C87.9543505,36.8996593 85.4184322,36.8996593 85.4184322,36.8996593 L85.4184322,114.117363 L85.4184322,220.133916 C85.4184322,220.133916 83.9343572,230 71.7733811,230 C59.612405,230 58.3280718,220 58.3280718,220 L58,113.54692 L55.4939742,113.54692 L55.4793791,2.84217094e-14 Z" id="Rectangle-3"></path>
                <path d="M0,2.84217094e-14 L30.5983766,2.84217094e-14 C30.5983766,2.84217094e-14 45.9000427,5.57639291 50.097602,9.99447177 C54.2951613,14.4125506 55.5206209,26.2315389 55.5206209,26.2315389 L55.5206209,105.029445 C55.5206209,105.029445 54.999425,114.117363 45.4511587,114.117363 C35.9028924,114.117363 34.8483236,105.050617 34.8483236,105.050617 L34.8483236,36.8996593 L32.5068508,36.8996593 C32.4749714,36.8996593 29.9390531,36.8996593 29.9390531,36.8996593 L29.9390531,114.117363 L29.9390531,220.133916 C29.9390531,220.133916 28.4549781,230 16.294002,230 C4.13302585,230 2.84869271,220 2.84869271,220 L2.52062089,113.54692 L0.0145950948,113.54692 L0,2.84217094e-14 Z" id="Rectangle-3-Copy" transform="translate(27.760310, 115.000000) scale(-1, 1) translate(-27.760310, -115.000000) "></path>
                <polygon id="Rectangle-4" points="52.5837136 0 58.1183021 0 58.1183021 113.546164 52.5837136 113.546164"></polygon>
            </g>
        </g>
    </g>
</svg>